<svg width="75" height="61" viewBox="0 0 75 61" fill="none" xmlns="http://www.w3.org/2000/svg">
<g clip-path="url(#clip0)">
<path d="M51.8107 22.8233C51.4484 22.0105 50.6418 21.4871 49.7519 21.4871C47.1759 21.4871 32.7936 21.4871 32.7936 21.4871L39.7691 3.05161C40.0311 2.35918 39.9363 1.58211 39.5154 0.972761C39.0947 0.363628 38.4016 0 37.6611 0H20.8838C19.9467 0 19.1073 0.579822 18.7756 1.45628L8.14002 29.5645C7.87799 30.257 7.97275 31.034 8.39368 31.6434C8.81461 32.2525 9.50771 32.6164 10.2482 32.6164L29.0685 32.5033L19.1247 58.9501C18.9933 59.2996 19.1293 59.6932 19.4484 59.8872C19.7675 60.0811 20.1796 60.0203 20.4293 59.7426L51.4285 25.2479C52.0231 24.5859 52.173 23.6361 51.8107 22.8233Z" fill="black"/>
</g>
<rect x="45" y="56" width="30" height="5" fill="black"/>
<defs>
<clipPath id="clip0">
<rect width="60" height="60" fill="white"/>
</clipPath>
</defs>
</svg>
