<svg width="15" height="13" viewBox="0 0 15 13" fill="none" xmlns="http://www.w3.org/2000/svg">
<path d="M13.6601 12.393C13.9972 12.393 14.2894 12.2817 14.5378 12.0618L10.288 7.81193C10.1861 7.88495 10.0872 7.95595 9.99387 8.02346C9.67584 8.25777 9.41772 8.44062 9.21951 8.57164C9.02134 8.70296 8.75766 8.83681 8.42852 8.97346C8.09916 9.11029 7.79232 9.17848 7.50768 9.17848H7.49935H7.49101C7.20634 9.17848 6.8995 9.11031 6.57017 8.97346C6.24084 8.83681 5.97716 8.70296 5.77918 8.57164C5.581 8.44062 5.32302 8.2578 5.00482 8.02346C4.91615 7.95845 4.81781 7.88713 4.71149 7.81079L0.460938 12.0618C0.709279 12.2817 1.00163 12.393 1.33878 12.393H13.6601Z" fill="white"/>
<path d="M0.845514 5.13568C0.52751 4.92367 0.245509 4.68085 0 4.40735V10.8732L3.7457 7.12753C2.99635 6.60437 2.03085 5.94119 0.845514 5.13568Z" fill="white"/>
<path d="M14.163 5.13568C13.0229 5.90736 12.0539 6.57169 11.2559 7.12902L15 10.8734V4.40735C14.76 4.67535 14.481 4.918 14.163 5.13568Z" fill="white"/>
<path d="M13.6604 0.607178H1.3392C0.909349 0.607178 0.578872 0.752331 0.347362 1.04234C0.11566 1.33248 0 1.69534 0 2.1305C0 2.482 0.153487 2.86286 0.460326 3.27319C0.767164 3.68335 1.09366 4.00552 1.43966 4.23986C1.62934 4.37388 2.20135 4.77154 3.15569 5.43271C3.67087 5.78971 4.11888 6.10088 4.50388 6.3694C4.83204 6.59805 5.11505 6.79607 5.34871 6.96039C5.37554 6.97921 5.41772 7.00939 5.47371 7.04942C5.53404 7.09275 5.61037 7.14773 5.70455 7.21573C5.88589 7.34689 6.03655 7.45291 6.15654 7.5339C6.27636 7.61492 6.42155 7.70542 6.59186 7.80591C6.76204 7.90626 6.92256 7.98173 7.07321 8.03192C7.22389 8.08208 7.36338 8.10724 7.49171 8.10724H7.50004H7.50837C7.63667 8.10724 7.77619 8.08208 7.9269 8.03192C8.07752 7.98173 8.2379 7.90643 8.40822 7.80591C8.57837 7.70542 8.72336 7.61473 8.84357 7.5339C8.96356 7.45291 9.11422 7.34692 9.29559 7.21573C9.38957 7.14773 9.46591 7.09272 9.52623 7.04956C9.58225 7.00936 9.62441 6.97938 9.65139 6.96039C9.83342 6.83373 10.1171 6.63653 10.4985 6.37172C11.1924 5.88955 12.2144 5.17988 13.5688 4.23986C13.9761 3.95536 14.3164 3.61203 14.5899 3.21036C14.863 2.8087 14.9998 2.38737 14.9998 1.94651C14.9998 1.57818 14.8671 1.26301 14.6023 1.00051C14.3371 0.738334 14.0232 0.607178 13.6604 0.607178Z" fill="white"/>
</svg>
