<svg width="20" height="16" viewBox="0 0 20 16" fill="none" xmlns="http://www.w3.org/2000/svg">
<path d="M18.2141 15.8572C18.6636 15.8572 19.0532 15.7087 19.3843 15.4156L13.718 9.74908C13.5821 9.84643 13.4503 9.9411 13.3258 10.0311C12.9018 10.3435 12.5576 10.5873 12.2933 10.762C12.0291 10.9371 11.6775 11.1156 11.2387 11.2978C10.7995 11.4802 10.3904 11.5711 10.0109 11.5711H9.99978H9.98867C9.60911 11.5711 9.19999 11.4803 8.76088 11.2978C8.32177 11.1156 7.9702 10.9371 7.70622 10.762C7.44198 10.5873 7.09801 10.3436 6.67375 10.0311C6.55552 9.94444 6.4244 9.84934 6.28264 9.74756L0.615234 15.4156C0.946356 15.7087 1.33616 15.8572 1.78569 15.8572H18.2141Z" fill="white"/>
<path d="M1.12735 6.18082C0.703347 5.89814 0.327345 5.57439 0 5.20972V13.8309L4.99427 8.83662C3.99513 8.13908 2.7078 7.25483 1.12735 6.18082Z" fill="white"/>
<path d="M18.884 6.18082C17.3638 7.20974 16.0718 8.09551 15.0078 8.83862L20 13.8311V5.20972C19.68 5.56705 19.308 5.89059 18.884 6.18082Z" fill="white"/>
<path d="M18.2139 0.142822H1.7856C1.21247 0.142822 0.77183 0.336361 0.463149 0.723038C0.154213 1.1099 0 1.59371 0 2.17392C0 2.64259 0.20465 3.1504 0.613767 3.6975C1.02289 4.24438 1.45822 4.67394 1.91955 4.9864C2.17246 5.16509 2.93514 5.6953 4.20759 6.57687C4.89449 7.05287 5.49184 7.46776 6.00517 7.82579C6.44272 8.13066 6.82007 8.39468 7.13162 8.61378C7.16739 8.63887 7.22363 8.6791 7.29829 8.73248C7.37872 8.79025 7.4805 8.86356 7.60606 8.95423C7.84786 9.1291 8.04873 9.27046 8.20872 9.37845C8.36849 9.48648 8.56206 9.60714 8.78915 9.74113C9.01606 9.87494 9.23008 9.97555 9.43095 10.0425C9.63186 10.1094 9.81784 10.1429 9.98894 10.1429H10.0001H10.0112C10.1822 10.1429 10.3682 10.1094 10.5692 10.0425C10.77 9.97555 10.9839 9.87515 11.211 9.74113C11.4378 9.60714 11.6312 9.48622 11.7914 9.37845C11.9514 9.27046 12.1523 9.12914 12.3941 8.95423C12.5194 8.86356 12.6212 8.79021 12.7016 8.73266C12.7763 8.67906 12.8325 8.63909 12.8685 8.61378C13.1112 8.44489 13.4894 8.18196 13.9979 7.82888C14.9232 7.18599 16.2859 6.23975 18.0917 4.9864C18.6348 4.60706 19.0886 4.14928 19.4533 3.61373C19.8173 3.07818 19.9998 2.51641 19.9998 1.9286C19.9998 1.4375 19.8228 1.01727 19.4697 0.667264C19.1162 0.317697 18.6976 0.142822 18.2139 0.142822Z" fill="white"/>
</svg>
