<svg width="25" height="25" viewBox="0 0 25 25" fill="none" xmlns="http://www.w3.org/2000/svg">
<circle cx="12.5" cy="12.5" r="12.5" fill="#C4C4C4"/>
<path d="M12.3237 16.2691C11.7231 16.8501 11.1323 17.4263 10.5415 18.0025C10.3364 18.2027 10.1069 18.315 9.80905 18.3003C9.60885 18.2906 9.49655 18.2027 9.43307 18.0123C8.98385 16.6158 8.52487 15.2193 8.07565 13.8179C8.0317 13.6812 7.96823 13.6177 7.83151 13.5738C6.77194 13.2515 5.70749 12.9195 4.6528 12.5826C4.49166 12.5289 4.32565 12.4654 4.18405 12.3677C3.96432 12.2212 3.93502 11.982 4.13034 11.8062C4.311 11.6451 4.52584 11.5083 4.75045 11.4205C6.04928 10.9078 7.35299 10.4097 8.6567 9.90678C11.9624 8.63237 15.268 7.35307 18.5737 6.07866C19.2036 5.83452 19.687 6.17632 19.6186 6.85991C19.5747 7.29448 19.4624 7.72417 19.3745 8.15385C18.6567 11.5425 17.9389 14.9361 17.2163 18.3248C17.0454 19.1304 16.479 19.3404 15.8198 18.8521C14.7114 18.0367 13.603 17.2164 12.4946 16.396C12.4409 16.3521 12.3872 16.313 12.3237 16.2691ZM9.83346 17.2994C9.84811 17.2945 9.85788 17.2945 9.87252 17.2896C9.87741 17.2554 9.88717 17.2261 9.89206 17.1968C9.9653 16.4302 10.0385 15.6587 10.102 14.8921C10.1167 14.7212 10.1753 14.5992 10.3022 14.482C11.3227 13.5689 12.3432 12.646 13.3589 11.7281C14.4868 10.7124 15.6147 9.69682 16.7378 8.67632C16.8061 8.61284 16.8354 8.50542 16.8842 8.41753C16.7768 8.40776 16.6645 8.36382 16.5669 8.38823C16.435 8.42241 16.313 8.50053 16.1958 8.57378C13.7104 10.1412 11.2202 11.7085 8.73483 13.2759C8.59323 13.3638 8.56881 13.4371 8.62252 13.5933C8.80807 14.1207 8.97409 14.6529 9.14499 15.1851C9.37448 15.8882 9.60397 16.5962 9.83346 17.2994Z" fill="white"/>
</svg>
