<?xml version="1.0" standalone="no"?>
<!DOCTYPE svg PUBLIC "-//W3C//DTD SVG 20010904//EN"
 "http://www.w3.org/TR/2001/REC-SVG-20010904/DTD/svg10.dtd">
<svg version="1.0" xmlns="http://www.w3.org/2000/svg"
 width="700.000000pt" height="700.000000pt" viewBox="0 0 700.000000 700.000000"
 preserveAspectRatio="xMidYMid meet">
<metadata>
Created by potrace 1.11, written by Peter Selinger 2001-2013
</metadata>
<g transform="translate(0.000000,700.000000) scale(0.100000,-0.100000)"
fill="#000000" stroke="none">
<path d="M1945 5841 c-22 -10 -50 -29 -63 -43 -19 -21 -833 -2100 -864 -2206
-14 -50 0 -109 35 -149 59 -67 21 -64 846 -63 621 2 745 0 743 -12 -2 -7 -177
-464 -389 -1015 -377 -981 -385 -1003 -369 -1028 12 -18 25 -25 49 -25 35 0
-33 -74 2130 2283 192 209 353 390 358 404 28 73 1 159 -64 207 -28 21 -36 21
-724 24 -545 2 -694 5 -690 15 3 6 127 327 276 713 204 527 271 711 271 743 0
54 -30 109 -77 141 l-37 25 -695 2 c-660 3 -698 2 -736 -16z"/>
<path d="M3342 1333 l3 -188 1168 -3 1167 -2 0 190 0 190 -1170 0 -1170 0 2
-187z"/>
</g>
</svg>
